<?xml version='1.0' encoding='utf-8'?>
<svg xmlns="http://www.w3.org/2000/svg" width="1024pt" height="1024pt" version="1.1" viewBox="0 0 1024 1024"> <g fill="#c7507c"> <path d="m275.74 0h476.24c10.29 0.78 20.68 0.37 31 1.07 27.48 1.03 55.12 3.8 81.6 11.56 38.31 11.06 73.44 32.97 100.05 62.69 22.1 24.41 38.32 54.05 47.28 85.72 10.65 37.16 11.3 76.13 12.09 114.47v472.99c-0.57 25.54-0.9 51.18-4.34 76.54-2.81 21.34-7.92 42.46-16.22 62.35-14.54 35.11-38.58 66.21-68.95 89.06-19.18 14.52-40.83 25.74-63.72 33.14-39.34 12.81-81.14 13.68-122.12 14.41h-473.53c-33.26-0.47-66.82-1.2-99.46-8.31-26.13-5.62-51.33-15.82-73.72-30.46-30.26-19.63-55.42-47.04-72.37-78.87-10.34-19.23-17.55-40.08-21.86-61.46-6.39-30.73-6.8-62.25-7.71-93.48v-474.36c0.58-2.97 0.14-6.02 0.34-9.02 0.64-39.05 2.28-78.82 14.71-116.2 12.45-37.83 35.64-72.05 66.25-97.53 28.15-23.75 62.6-39.64 98.69-46.66 20.45-4.08 41.28-5.88 62.09-6.55 11.2-0.82 22.49-0.33 33.66-1.1m103.91 137.9c-27.03 0.96-54.25 2.12-80.68 8.32-32.47 7.49-63.99 21.43-89.04 43.74-17.38 15.24-32.52 33.23-43.37 53.71-9.95 18.78-16.96 39.07-21.33 59.86-5.45 25.45-6.45 51.54-7.33 77.48-1.28 29.99-0.97 60.01-1.24 90.02 0.1 52-0.34 104.01 0.66 156 1.05 27.52 1.25 55.21 5.8 82.45 3.32 20.23 9.07 40.08 17.44 58.8 14.32 32.58 38.67 60.32 67.9 80.38 26.96 17.97 58.51 28.53 90.12 33.22 2.6 1.14 5.68 0.02 8.24 1.34 3.35 0.5 6.86-0.02 10.11 1.09 4.63 0.37 9.36 0.04 13.93 1.04 6.04 0.1 12.08 0.35 18.12 0.5 12.9 1.36 26.07 0.33 38.97 1.56 54 0.3 108.02 0.28 162.03 0.1 30.68-0.05 61.35-0.48 91.99-2.05 24.65-0.93 49.38-3.6 73.22-10.17 19.84-5.55 39.16-13.4 56.6-24.45 17.21-10.94 32.42-24.87 45.49-40.49 13.4-15.97 23.68-34.42 31.01-53.9 8.72-22.55 13.39-46.47 15.61-70.49 2.36-31.6 3.11-63.32 3.31-95 0.22-32.98 0.25-65.95 0.24-98.92-0.19-44.95 0.18-89.93-2.28-134.83-1.47-38.97-8.98-78.39-27.41-113.09-11-20.9-26.46-39.24-44.23-54.71-27.64-24.34-62.89-38.61-98.79-45.34-27.93-5.31-56.44-5.57-84.75-6.67-50.67-1.13-101.35-0.67-152.02-0.78-32.78 0.16-65.57-0.01-98.32 1.28z"/> <path d="m435.26 204.47c52.59-0.28 105.19-0.31 157.79 0.04 25.65 0.19 51.3 0.9 76.92 2.33 25.91 1.52 52.1 6.19 75.5 17.88 15.23 7.44 28.28 18.75 39.22 31.58 8.92 10.41 15.57 22.6 20.37 35.41 8.17 21.12 11.23 43.81 12.41 66.31 2.8 52.96 2.22 106.01 2.34 159.03-0.05 41.65 0.21 83.31-1.27 124.94-1.02 28.08-1.95 56.69-11 83.57-4.92 14.79-11.83 29.11-21.89 41.12-10.06 11.96-21.83 22.72-35.58 30.28-23.85 13.09-51.09 18.43-78.01 20.14-34.64 2.07-69.35 2.51-104.04 2.56-47.34 0.02-94.68 0.07-142.02-0.27-9.67-0.18-19.36-0.02-29.01-0.63-7.33-0.26-14.71-0.05-21.99-0.9-23.72-0.44-47.65-2.12-70.55-8.69-17.81-5.22-35.18-13.11-49.17-25.51-14.21-12.1-26.14-27.13-33.41-44.4-9.53-21.48-13.46-44.97-14.95-68.29-3.04-51.95-2.52-104.01-2.67-156.02 0.13-54.31-0.5-108.68 2.7-162.92 1.74-26.91 7.06-54.16 20.16-78 9.05-16.19 22.16-29.93 37.12-40.78 24.21-16.73 53.79-23.53 82.74-25.91 29.38-2 58.84-2.64 88.29-2.87m269.17 62.79c-18.55 3.1-34.06 18.97-36.56 37.63-2.37 14.62 3.17 30.16 14.17 40.05 9.75 8.98 23.61 13.31 36.72 11.31 11.58-1.53 22.37-7.92 29.44-17.18 7.19-9.3 10.48-21.5 8.92-33.15-1.62-13.94-10.35-26.74-22.58-33.57-9.04-5.16-19.88-6.86-30.11-5.09m-206.81 52.55c-37.79 2.62-74.62 16.97-104.38 40.38-31.29 24.43-54.78 58.73-66.01 96.83-11.97 40.06-10.45 84.02 4.38 123.12 13.76 36.64 39.05 68.81 71.35 90.91 35.93 24.87 80.56 36.77 124.11 33.19 39.24-2.88 77.4-18.38 107.66-43.51 31.31-25.77 54.18-61.63 64.11-100.96 9.97-38.89 7.42-80.89-7.33-118.25-14.48-37.03-40.8-69.26-74.11-90.96-35.09-23.07-77.92-34.07-119.78-30.75z"/> <path d="m497.43 387.78c34.6-4.31 70.71 6.89 96.86 29.95 16.05 14.01 28.49 32.16 35.63 52.24 12.37 34.22 8.78 73.8-9.78 105.13-16.62 28.62-45.01 50.15-77.14 58.19-25.96 6.63-54.04 4.69-78.78-5.61-31.16-12.77-56.58-38.69-68.75-70.08-13.97-35.23-10.69-76.76 8.83-109.26 19.42-33.17 54.86-56.45 93.13-60.56z"/> </g> <g fill="#fffbf2"> <path d="m379.65 137.9c32.75-1.29 65.54-1.12 98.32-1.28 50.67 0.11 101.35-0.35 152.02 0.78 28.31 1.1 56.82 1.36 84.75 6.67 35.9 6.73 71.15 21 98.79 45.34 17.77 15.47 33.23 33.81 44.23 54.71 18.43 34.7 25.94 74.12 27.41 113.09 2.46 44.9 2.09 89.88 2.28 134.83 0.01 32.97-0.02 65.94-0.24 98.92-0.2 31.68-0.95 63.4-3.31 95-2.22 24.02-6.89 47.94-15.61 70.49-7.33 19.48-17.61 37.93-31.01 53.9-13.07 15.62-28.28 29.55-45.49 40.49-17.44 11.05-36.76 18.9-56.6 24.45-23.84 6.57-48.57 9.24-73.22 10.17-30.64 1.57-61.31 2-91.99 2.05-54.01 0.18-108.03 0.2-162.03-0.1-12.9-1.23-26.07-0.2-38.97-1.56-6.04-0.15-12.08-0.4-18.12-0.5-4.57-1-9.3-0.67-13.93-1.04-3.25-1.11-6.76-0.59-10.11-1.09-2.56-1.32-5.64-0.2-8.24-1.34-31.61-4.69-63.16-15.25-90.12-33.22-29.23-20.06-53.58-47.8-67.9-80.38-8.37-18.72-14.12-38.57-17.44-58.8-4.55-27.24-4.75-54.93-5.8-82.45-1-51.99-0.56-104-0.66-156 0.27-30.01-0.04-60.03 1.24-90.02 0.88-25.94 1.88-52.03 7.33-77.48 4.37-20.79 11.38-41.08 21.33-59.86 10.85-20.48 25.99-38.47 43.37-53.71 25.05-22.31 56.57-36.25 89.04-43.74 26.43-6.2 53.65-7.36 80.68-8.32m55.61 66.57c-29.45 0.23-58.91 0.87-88.29 2.87-28.95 2.38-58.53 9.18-82.74 25.91-14.96 10.85-28.07 24.59-37.12 40.78-13.1 23.84-18.42 51.09-20.16 78-3.2 54.24-2.57 108.61-2.7 162.92 0.15 52.01-0.37 104.07 2.67 156.02 1.49 23.32 5.42 46.81 14.95 68.29 7.27 17.27 19.2 32.3 33.41 44.4 13.99 12.4 31.36 20.29 49.17 25.51 22.9 6.57 46.83 8.25 70.55 8.69 7.28 0.85 14.66 0.64 21.99 0.9 9.65 0.61 19.34 0.45 29.01 0.63 47.34 0.34 94.68 0.29 142.02 0.27 34.69-0.05 69.4-0.49 104.04-2.56 26.92-1.71 54.16-7.05 78.01-20.14 13.75-7.56 25.52-18.32 35.58-30.28 10.06-12.01 16.97-26.33 21.89-41.12 9.05-26.88 9.98-55.49 11-83.57 1.48-41.63 1.22-83.29 1.27-124.94-0.12-53.02 0.46-106.07-2.34-159.03-1.18-22.5-4.24-45.19-12.41-66.31-4.8-12.81-11.45-25-20.37-35.41-10.94-12.83-23.99-24.14-39.22-31.58-23.4-11.69-49.59-16.36-75.5-17.88-25.62-1.43-51.27-2.14-76.92-2.33-52.6-0.35-105.2-0.32-157.79-0.04z"/> <path d="m704.43 267.26c10.23-1.77 21.07-0.07 30.11 5.09 12.23 6.83 20.96 19.63 22.58 33.57 1.56 11.65-1.73 23.85-8.92 33.15-7.07 9.26-17.86 15.65-29.44 17.18-13.11 2-26.97-2.33-36.72-11.31-11-9.89-16.54-25.43-14.17-40.05 2.5-18.66 18.01-34.53 36.56-37.63z"/> <path d="m497.62 319.81c41.86-3.32 84.69 7.68 119.78 30.75 33.31 21.7 59.63 53.93 74.11 90.96 14.75 37.36 17.3 79.36 7.33 118.25-9.93 39.33-32.8 75.19-64.11 100.96-30.26 25.13-68.42 40.63-107.66 43.51-43.55 3.58-88.18-8.32-124.11-33.19-32.3-22.1-57.59-54.27-71.35-90.91-14.83-39.1-16.35-83.06-4.38-123.12 11.23-38.1 34.72-72.4 66.01-96.83 29.76-23.41 66.59-37.76 104.38-40.38m-0.19 67.97c-38.27 4.11-73.71 27.39-93.13 60.56-19.52 32.5-22.8 74.03-8.83 109.26 12.17 31.39 37.59 57.31 68.75 70.08 24.74 10.3 52.82 12.24 78.78 5.61 32.13-8.04 60.52-29.57 77.14-58.19 18.56-31.33 22.15-70.91 9.78-105.13-7.14-20.08-19.58-38.23-35.63-52.24-26.15-23.06-62.26-34.26-96.86-29.95z"/> </g> </svg>