<?xml version='1.0' encoding='utf-8'?>
<svg xmlns="http://www.w3.org/2000/svg" enable-background="new 0 0 5000 5000" version="1.1" viewBox="0 0 5e3 5e3"> <style type="text/css">.st0{fill-rule:evenodd;clip-rule:evenodd;fill:#00F7EF;} .st1{fill-rule:evenodd;clip-rule:evenodd;} .st2{fill-rule:evenodd;clip-rule:evenodd;fill:#FF004F;}</style> <path class="st0" d="m1414 3763.2c-681.2-591.1-240.6-1907.1 806.6-1741.5v121.9c-884.4-41.2-1273.7 1013.8-806.6 1619.6zm1910.2-2283c107.6 86 256 149.4 460.6 161.5v119.4c-226.4-41.8-369.8-154.3-460.6-280.9zm-284-628.6c-0.2 44.1 5.6 91.4 12.8 134.6h-417.5v2078.6c0 95.8-9.8 181.2-29.5 256-170 374.7-651.4 325.8-784.4 68.6 198 124 523.7 91.1 657.3-203.2 19.5-74.7 29.3-160.2 29.3-256v-2078.6h532z"/> <path class="st1" d="m3167.5 986.2v2.7c0.2 48.1 14.2 744 744.6 787.5 0 647.4 0.3 0 0.3 537.7-54.9 3.3-480.7-27.5-745.7-263.9l-0.8 1046.8c6.6 474-257.3 938.8-751.3 1032.5-138.4 26.2-263 29.2-472.2-16.5-1205.1-360.6-804.7-2148 405.3-1956.7 0 577 0.3-0.2 0.3 577-499.9-73.5-667.1 342.3-534.3 640.1 120.9 271.1 618.6 329.9 792.2-52.6 19.7-74.8 29.5-160.2 29.5-256v-2078.6h532.1z"/> <path class="st2" d="m2220.7 2143.6c41.3 1.8 83.7 5.9 127.1 12.8 0 577 0.3-0.2 0.3 577-499.9-73.5-667.1 342.3-534.3 640.1 2.4 5.4 5.1 10.8 7.8 16.1-59.4-37.2-107.3-88.3-135.1-150.7-132.7-297.8 34.4-713.6 534.2-640.1 0.1-528.9 0-88.9 0-455.2zm1564.1-382.4c39.8 7.3 82.2 12.6 127.3 15.2 0 647.4 0.3 0 0.3 537.7-54.9 3.3-480.7-27.5-745.7-263.9l-0.8 1046.8c6.6 474-257.3 938.8-751.3 1032.5-138.4 26.2-263 29.2-472.2-16.5-235.5-70.4-409.4-195.6-528.3-349.7 105.9 92 238.9 166.6 401.3 215.2 209 45.5 333.6 42.6 472 16.4 494-93.7 757.8-558.5 751.4-1032.3l0.7-1046.9c265 236.4 690.8 267.3 745.9 263.9-0.1-499.5-0.6 23.1-0.6-418.4zm-617.3-775v2.7c0 28.3 5.1 279.6 156.7 491.3-182.8-146.2-248-357.5-271.2-494h114.5z"/> </svg>