<svg id="Layer_1" data-name="Layer 1" xmlns="http://www.w3.org/2000/svg" viewBox="0 0 283.46 283.46"><defs><style>.cls-1{fill:#e04686;}</style></defs><path class="cls-1" d="M121.47,259.84c10.63-3.24,21.5-4.82,32.75-3.55A63.37,63.37,0,0,1,173.43,262c3.82,1.75,7.66,3.47,11.5,5.19,4.13,1.86,8.33,3.57,12.38,5.58,9.41,4.67,20.86,3.59,28.6-4.26A22.33,22.33,0,0,0,232.36,250c-1-10.62-2.32-21.21-3.36-31.83a95.23,95.23,0,0,1-.28-17.71,73.63,73.63,0,0,1,7.08-26.11,79.66,79.66,0,0,1,8.95-14.16c6.34-8.1,13.47-15.51,20.24-23.23,2.66-3,5.61-5.76,8.1-8.95a22,22,0,0,0,4.73-12c.59-7.48-1.59-14-7-19.26a22.66,22.66,0,0,0-11.73-5.89C248,88.61,237,86.25,226,83.32c-9.16-2.45-17.92-5.87-25.81-11.21a70.06,70.06,0,0,1-14-12.86,93.12,93.12,0,0,1-9.66-13.4c-1.64-2.82-3.16-5.77-4.73-8.62-5.42-9.81-8.65-24.79-19.87-30a22,22,0,0,0-19.48.19c-10.67,5-14,16.17-19.67,25.54-2,3.41-3.83,7-5.86,10.4s-4.11,6.66-6.26,9.93A71.66,71.66,0,0,1,74.17,77.13,108.56,108.56,0,0,1,47.43,87c-8,1.9-16.22,3-24.28,4.79a21.65,21.65,0,0,0-11.91,6.66,21.91,21.91,0,0,0-5.37,18.72c1,6.87,4.79,12.26,9.35,17.3,7.44,8.23,15,16.35,21.82,25.15a77.27,77.27,0,0,1,13.23,25.74,94.12,94.12,0,0,1,3.36,32.92c-.71,10.62-2.09,21.16-3.16,31.74-.69,6.74.56,13.21,4.6,18.77,4.38,6,10.65,8.86,18,9.59,5.78.58,10.82-1.52,15.84-4.08,9-4.59,17.9-9.37,27.45-12.75Q118.89,260.63,121.47,259.84Z"/></svg>